<svg width="109" height="38" viewBox="0 0 109 38" fill="none" xmlns="http://www.w3.org/2000/svg">
<path d="M16.464 0.199999H12.048L8.352 7.352L4.656 0.199999H0.24L6.288 10.688V17H10.416V10.688L16.464 0.199999ZM22.2549 13.136V10.352H27.7269V6.68H22.2549V4.088H28.4949V0.199999H18.1509V17H28.7109V13.136H22.2549ZM45.0079 17L41.4319 10.448C43.0399 9.536 44.0239 8.024 44.0239 6.008C44.0239 2.648 41.8399 0.199999 37.5679 0.199999H31.1119V17H35.2159V11.384H37.5679C37.6639 11.384 37.7359 11.384 37.8079 11.384L40.6399 17H45.0079ZM35.2159 4.088H37.5679C38.9359 4.088 39.8719 4.76 39.8719 6.008C39.8719 7.448 38.7679 7.928 37.5679 7.928H35.2159V4.088ZM56.8498 0.199999V9.992L50.2978 0.199999H46.6978V17H50.8258V7.208L57.3778 17H60.9778V0.199999H56.8498ZM73.7901 0.199999V10.064C73.7901 12.296 72.7101 13.352 70.8861 13.352C69.0381 13.352 67.9821 12.296 67.9821 10.064V0.199999H63.8541V10.472C63.8541 15.08 66.4941 17.312 70.8861 17.312C75.2781 17.312 77.8941 15.08 77.8941 10.472V0.199999H73.7901ZM94.6719 17L91.0959 10.448C92.7039 9.536 93.6879 8.024 93.6879 6.008C93.6879 2.648 91.5039 0.199999 87.2319 0.199999H80.7759V17H84.8799V11.384H87.2319C87.3279 11.384 87.3999 11.384 87.4719 11.384L90.3039 17H94.6719ZM84.8799 4.088H87.2319C88.5999 4.088 89.5359 4.76 89.5359 6.008C89.5359 7.448 88.4319 7.928 87.2319 7.928H84.8799V4.088ZM11.88 28.192V28.12C13.032 27.448 13.68 26.392 13.68 24.832C13.68 21.976 11.616 20.2 7.56 20.2H1.44V37H8.184C12.576 37 14.376 34.864 14.376 31.888C14.376 30.136 13.488 28.888 11.88 28.192ZM7.344 23.44C8.76 23.44 9.552 24.04 9.552 25.264C9.552 26.344 8.832 27.088 7.344 27.088H5.568V23.44H7.344ZM7.968 33.76H5.568V29.896H7.968C9.432 29.896 10.2 30.568 10.2 31.72C10.2 32.872 9.504 33.76 7.968 33.76ZM27.9818 37H32.2778L26.2298 20.2H21.3818L15.3338 37H19.6538L20.6378 33.88H26.9978L27.9818 37ZM21.5978 30.76L23.8058 23.776L26.0138 30.76H21.5978ZM41.0278 27.016C39.7318 26.656 37.7398 26.344 37.7398 25.024C37.7398 24.064 38.5318 23.416 39.7318 23.416C41.1958 23.416 41.8918 24.232 42.1078 25.048L45.8998 24.112C45.2518 21.448 42.8038 19.912 39.9238 19.912C36.4198 19.912 33.7558 21.832 33.7558 25.048C33.7558 27.856 35.2678 29.416 38.6278 30.232C40.5238 30.712 42.1798 30.904 42.1798 32.152C42.1798 33.256 41.1238 33.808 39.7078 33.808C37.8838 33.808 36.9958 32.776 36.7798 31.816L32.9878 32.992C33.7318 36.112 36.6598 37.312 39.7558 37.312C43.9558 37.312 46.3318 34.816 46.3318 32.08C46.3318 29.464 45.1318 28.168 41.0278 27.016ZM58.4447 20.2V26.584H52.3487V20.2H48.2447V37H52.3487V30.472H58.4447V37H62.5487V20.2H58.4447ZM71.6884 20.2H65.4244V37H69.5284V32.032H71.6884C75.3364 32.032 78.3604 30.184 78.3604 26.224C78.3604 22.6 75.8644 20.2 71.6884 20.2ZM71.6884 28.36H69.5284V24.088H71.6884C73.2724 24.088 74.1844 24.928 74.1844 26.224C74.1844 27.688 73.1764 28.36 71.6884 28.36ZM90.5364 37H94.8324L88.7844 20.2H83.9364L77.8884 37H82.2084L83.1924 33.88H89.5524L90.5364 37ZM84.1524 30.76L86.3604 23.776L88.5684 30.76H84.1524ZM108.878 20.2H104.462L100.766 27.352L97.0701 20.2H92.6541L98.7021 30.688V37H102.83V30.688L108.878 20.2Z" fill="white"/>
</svg>
